<svg width="512" height="180" viewBox="0 0 512 180" fill="none" xmlns="http://www.w3.org/2000/svg">
<path d="M27.7806 54.8H37.3806L57.5406 95.6C58.0526 96.432 58.4686 97.424 58.7886 98.576C59.0446 99.536 59.2046 100.144 59.2686 100.4H59.6526C59.7166 100.144 59.8766 99.536 60.1326 98.576C60.4526 97.424 60.8686 96.432 61.3806 95.6L81.5406 54.8H91.1406V122H81.5406V79.76C81.5406 78.736 81.6046 77.008 81.7326 74.576L81.9246 71.6H81.5406L80.6766 74.576C80.4846 75.088 80.1966 75.92 79.8126 77.072C79.4286 78.16 79.0446 79.056 78.6606 79.76L63.3006 110H55.6206L40.2606 79.76C39.8766 79.056 39.4926 78.16 39.1086 77.072C38.7246 75.92 38.4366 75.088 38.2446 74.576L37.3806 71.6H36.9966L37.1886 74.576C37.3166 77.008 37.3806 78.736 37.3806 79.76V122H27.7806V54.8ZM108.406 54.8H118.006L138.166 95.6C138.678 96.432 139.094 97.424 139.414 98.576C139.67 99.536 139.83 100.144 139.894 100.4H140.278C140.342 100.144 140.502 99.536 140.758 98.576C141.078 97.424 141.494 96.432 142.006 95.6L162.166 54.8H171.766V122H162.166V79.76C162.166 78.736 162.23 77.008 162.358 74.576L162.55 71.6H162.166L161.302 74.576C161.11 75.088 160.822 75.92 160.438 77.072C160.054 78.16 159.67 79.056 159.286 79.76L143.926 110H136.246L120.886 79.76C120.502 79.056 120.118 78.16 119.734 77.072C119.35 75.92 119.062 75.088 118.87 74.576L118.006 71.6H117.622L117.814 74.576C117.942 77.008 118.006 78.736 118.006 79.76V122H108.406V54.8ZM181.831 122L201.511 54.8H213.991L233.671 122H224.071L218.791 104.72H196.711L191.431 122H181.831ZM216.871 98L209.191 71.6C208.935 70.896 208.711 70.096 208.519 69.2C208.391 68.24 208.295 67.536 208.231 67.088L207.943 64.88H207.559L207.271 67.184C206.823 69.36 206.503 70.832 206.311 71.6L198.631 98H216.871ZM243.781 122V54.8H253.381V86.48L274.981 54.8H286.021L263.941 87.44L286.981 122H275.941L253.381 88.4V122H243.781ZM293.191 122V115.28H303.751V65.36L294.151 71.6L290.311 66.32L304.711 54.8H313.351V115.28H323.911V122H293.191ZM353.637 122.96C346.661 122.96 341.157 120.176 337.125 114.608C333.093 109.04 331.077 100.304 331.077 88.4C331.077 76.496 333.093 67.76 337.125 62.192C341.157 56.624 346.661 53.84 353.637 53.84C360.613 53.84 366.117 56.624 370.149 62.192C374.181 67.76 376.197 76.496 376.197 88.4C376.197 100.304 374.181 109.04 370.149 114.608C366.117 120.176 360.613 122.96 353.637 122.96ZM353.637 116.24C357.669 116.24 360.837 114.16 363.141 110C365.445 105.84 366.597 98.64 366.597 88.4C366.597 78.16 365.445 70.96 363.141 66.8C360.837 62.64 357.669 60.56 353.637 60.56C349.605 60.56 346.437 62.64 344.133 66.8C341.829 70.96 340.677 78.16 340.677 88.4C340.677 98.64 341.829 105.84 344.133 110C346.437 114.16 349.605 116.24 353.637 116.24ZM409.324 122.96C402.348 122.96 396.844 120.176 392.812 114.608C388.78 109.04 386.764 100.304 386.764 88.4C386.764 76.496 388.78 67.76 392.812 62.192C396.844 56.624 402.348 53.84 409.324 53.84C416.3 53.84 421.804 56.624 425.836 62.192C429.868 67.76 431.884 76.496 431.884 88.4C431.884 100.304 429.868 109.04 425.836 114.608C421.804 120.176 416.3 122.96 409.324 122.96ZM409.324 116.24C413.356 116.24 416.524 114.16 418.828 110C421.132 105.84 422.284 98.64 422.284 88.4C422.284 78.16 421.132 70.96 418.828 66.8C416.524 62.64 413.356 60.56 409.324 60.56C405.292 60.56 402.124 62.64 399.82 66.8C397.516 70.96 396.364 78.16 396.364 88.4C396.364 98.64 397.516 105.84 399.82 110C402.124 114.16 405.292 116.24 409.324 116.24ZM465.012 122.96C458.036 122.96 452.532 120.176 448.5 114.608C444.468 109.04 442.452 100.304 442.452 88.4C442.452 76.496 444.468 67.76 448.5 62.192C452.532 56.624 458.036 53.84 465.012 53.84C471.988 53.84 477.492 56.624 481.524 62.192C485.556 67.76 487.572 76.496 487.572 88.4C487.572 100.304 485.556 109.04 481.524 114.608C477.492 120.176 471.988 122.96 465.012 122.96ZM465.012 116.24C469.044 116.24 472.212 114.16 474.516 110C476.82 105.84 477.972 98.64 477.972 88.4C477.972 78.16 476.82 70.96 474.516 66.8C472.212 62.64 469.044 60.56 465.012 60.56C460.98 60.56 457.812 62.64 455.508 66.8C453.204 70.96 452.052 78.16 452.052 88.4C452.052 98.64 453.204 105.84 455.508 110C457.812 114.16 460.98 116.24 465.012 116.24Z" fill="url(#paint0_linear)"/>
<defs>
<linearGradient id="paint0_linear" x1="256" y1="0" x2="256" y2="180" gradientUnits="userSpaceOnUse">
<stop offset="0.520833" stop-color="#8297F4"/>
<stop offset="1" stop-color="#070707"/>
</linearGradient>
</defs>
</svg>
